<?xml version="1.0" encoding="UTF-8"?>
<!DOCTYPE svg
PUBLIC "-//W3C//DTD SVG 1.1//EN"
       "http://www.w3.org/Graphics/SVG/1.1/DTD/svg11.dtd">
<svg viewBox="84 68 809 653" width="725px" height="585px" xmlns="http://www.w3.org/2000/svg" version="1.1">
   <line x1="619" y1="515" x2="609" y2="515" style="stroke:#0bf;stroke-width:1;"/>
   <line x1="544" y1="136" x2="534" y2="136" style="stroke:#0bf;stroke-width:1;"/>
   <line x1="609" y1="515" x2="544" y2="136" style="stroke:#0bf;stroke-width:1;"/>
   <line x1="611.5" y1="515" x2="615.03553390593" y2="518.53553390593" style="stroke:#0bf;stroke-width:2;"/>
   <line x1="611.5" y1="515" x2="615.03553390593" y2="511.46446609407" style="stroke:#0bf;stroke-width:2;"/>
   <line x1="539" y1="136" x2="542.53553390593" y2="139.53553390593" style="stroke:#0bf;stroke-width:2;"/>
   <line x1="539" y1="136" x2="542.53553390593" y2="132.46446609407" style="stroke:#0bf;stroke-width:2;"/>
   <line x1="619" y1="535" x2="609" y2="535" style="stroke:#b0b;stroke-width:1;"/>
   <line x1="525" y1="346" x2="515" y2="346" style="stroke:#b0b;stroke-width:1;"/>
   <line x1="609" y1="535" x2="525" y2="346" style="stroke:#b0b;stroke-width:1;"/>
   <line x1="611.5" y1="535" x2="615.03553390593" y2="538.53553390593" style="stroke:#b0b;stroke-width:2;"/>
   <line x1="611.5" y1="535" x2="615.03553390593" y2="531.46446609407" style="stroke:#b0b;stroke-width:2;"/>
   <line x1="520" y1="346" x2="523.53553390593" y2="349.53553390593" style="stroke:#b0b;stroke-width:2;"/>
   <line x1="520" y1="346" x2="523.53553390593" y2="342.46446609407" style="stroke:#b0b;stroke-width:2;"/>
   <line x1="357" y1="426" x2="347" y2="426" style="stroke:#0b0;stroke-width:1;"/>
   <line x1="286" y1="377" x2="276" y2="377" style="stroke:#0b0;stroke-width:1;"/>
   <line x1="347" y1="426" x2="286" y2="377" style="stroke:#0b0;stroke-width:1;"/>
   <line x1="349.5" y1="426" x2="353.03553390593" y2="429.53553390593" style="stroke:#0b0;stroke-width:2;"/>
   <line x1="349.5" y1="426" x2="353.03553390593" y2="422.46446609407" style="stroke:#0b0;stroke-width:2;"/>
   <line x1="281" y1="377" x2="284.53553390593" y2="380.53553390593" style="stroke:#0b0;stroke-width:2;"/>
   <line x1="281" y1="377" x2="284.53553390593" y2="373.46446609407" style="stroke:#0b0;stroke-width:2;"/>
   <line x1="357" y1="366" x2="347" y2="366" style="stroke:#b0b;stroke-width:1;"/>
   <line x1="289" y1="113" x2="279" y2="113" style="stroke:#b0b;stroke-width:1;"/>
   <line x1="347" y1="366" x2="289" y2="113" style="stroke:#b0b;stroke-width:1;"/>
   <line x1="349.5" y1="366" x2="353.03553390593" y2="369.53553390593" style="stroke:#b0b;stroke-width:2;"/>
   <line x1="349.5" y1="366" x2="353.03553390593" y2="362.46446609407" style="stroke:#b0b;stroke-width:2;"/>
   <line x1="284" y1="113" x2="287.53553390593" y2="116.53553390593" style="stroke:#b0b;stroke-width:2;"/>
   <line x1="284" y1="113" x2="287.53553390593" y2="109.46446609407" style="stroke:#b0b;stroke-width:2;"/>
   <line x1="636" y1="368" x2="626" y2="368" style="stroke:#333;stroke-width:1;"/>
   <line x1="525" y1="346" x2="515" y2="346" style="stroke:#333;stroke-width:1;"/>
   <line x1="626" y1="368" x2="525" y2="346" style="stroke:#333;stroke-width:1;"/>
   <line x1="628.5" y1="368" x2="632.03553390593" y2="371.53553390593" style="stroke:#333;stroke-width:2;"/>
   <line x1="628.5" y1="368" x2="632.03553390593" y2="364.46446609407" style="stroke:#333;stroke-width:2;"/>
   <line x1="520" y1="346" x2="523.53553390593" y2="349.53553390593" style="stroke:#333;stroke-width:2;"/>
   <line x1="520" y1="346" x2="523.53553390593" y2="342.46446609407" style="stroke:#333;stroke-width:2;"/>
   <line x1="636" y1="348" x2="626" y2="348" style="stroke:#c00;stroke-width:1;"/>
   <line x1="544" y1="136" x2="534" y2="136" style="stroke:#c00;stroke-width:1;"/>
   <line x1="626" y1="348" x2="544" y2="136" style="stroke:#c00;stroke-width:1;"/>
   <line x1="628.5" y1="348" x2="632.03553390593" y2="351.53553390593" style="stroke:#c00;stroke-width:2;"/>
   <line x1="628.5" y1="348" x2="632.03553390593" y2="344.46446609407" style="stroke:#c00;stroke-width:2;"/>
   <line x1="539" y1="136" x2="542.53553390593" y2="139.53553390593" style="stroke:#c00;stroke-width:2;"/>
   <line x1="539" y1="136" x2="542.53553390593" y2="132.46446609407" style="stroke:#c00;stroke-width:2;"/>
   <line x1="598" y1="179" x2="588" y2="179" style="stroke:#0b0;stroke-width:1;"/>
   <line x1="609" y1="495" x2="619" y2="495" style="stroke:#0b0;stroke-width:1;"/>
   <line x1="588" y1="179" x2="609" y2="495" style="stroke:#0b0;stroke-width:1;"/>
   <line x1="590.5" y1="179" x2="594.03553390593" y2="182.53553390593" style="stroke:#0b0;stroke-width:2;"/>
   <line x1="590.5" y1="179" x2="594.03553390593" y2="175.46446609407" style="stroke:#0b0;stroke-width:2;"/>
   <line x1="614" y1="495" x2="610.46446609407" y2="498.53553390593" style="stroke:#0b0;stroke-width:2;"/>
   <line x1="614" y1="495" x2="610.46446609407" y2="491.46446609407" style="stroke:#0b0;stroke-width:2;"/>
   <rect width="158" height="20" x="619" y="465" style="fill:#007;stroke:black;"/>
   <text width="158" height="20" x="624" y="479" style="fill:#fff;" font-family="Arial" font-size="16px"> bookings</text>
   <rect width="158" height="20" x="619" y="485" style="fill:#aea;stroke:black;"/>
   <text width="158" height="20" x="624" y="499" style="fill:black;" font-family="Arial" font-size="16px">id</text>
   <rect width="158" height="20" x="619" y="505" style="fill:none;stroke:black;"/>
   <text width="158" height="20" x="624" y="519" style="fill:black;" font-family="Arial" font-size="16px">user_id</text>
   <rect width="158" height="20" x="619" y="525" style="fill:none;stroke:black;"/>
   <text width="158" height="20" x="624" y="539" style="fill:black;" font-family="Arial" font-size="16px">schedule_id</text>
   <rect width="158" height="20" x="619" y="545" style="fill:none;stroke:black;"/>
   <text width="158" height="20" x="624" y="559" style="fill:black;" font-family="Arial" font-size="16px">seat_number</text>
   <rect width="158" height="20" x="619" y="565" style="fill:none;stroke:black;"/>
   <text width="158" height="20" x="624" y="579" style="fill:black;" font-family="Arial" font-size="16px">booking_date</text>
   <rect width="158" height="20" x="118" y="347" style="fill:#007;stroke:black;"/>
   <text width="158" height="20" x="123" y="361" style="fill:#fff;" font-family="Arial" font-size="16px"> halls</text>
   <rect width="158" height="20" x="118" y="367" style="fill:#aea;stroke:black;"/>
   <text width="158" height="20" x="123" y="381" style="fill:black;" font-family="Arial" font-size="16px">Id</text>
   <rect width="158" height="20" x="118" y="387" style="fill:none;stroke:black;"/>
   <text width="158" height="20" x="123" y="401" style="fill:black;" font-family="Arial" font-size="16px">hall_name</text>
   <rect width="158" height="20" x="118" y="407" style="fill:none;stroke:black;"/>
   <text width="158" height="20" x="123" y="421" style="fill:black;" font-family="Arial" font-size="16px">seating_arrangement</text>
   <rect width="158" height="20" x="121" y="83" style="fill:#007;stroke:black;"/>
   <text width="158" height="20" x="126" y="97" style="fill:#fff;" font-family="Arial" font-size="16px"> movies</text>
   <rect width="158" height="20" x="121" y="103" style="fill:#aea;stroke:black;"/>
   <text width="158" height="20" x="126" y="117" style="fill:black;" font-family="Arial" font-size="16px">Id</text>
   <rect width="158" height="20" x="121" y="123" style="fill:none;stroke:black;"/>
   <text width="158" height="20" x="126" y="137" style="fill:black;" font-family="Arial" font-size="16px">Title</text>
   <rect width="158" height="20" x="121" y="143" style="fill:none;stroke:black;"/>
   <text width="158" height="20" x="126" y="157" style="fill:black;" font-family="Arial" font-size="16px">Release_date</text>
   <rect width="158" height="20" x="121" y="163" style="fill:none;stroke:black;"/>
   <text width="158" height="20" x="126" y="177" style="fill:black;" font-family="Arial" font-size="16px">Category</text>
   <rect width="158" height="20" x="121" y="183" style="fill:none;stroke:black;"/>
   <text width="158" height="20" x="126" y="197" style="fill:black;" font-family="Arial" font-size="16px">Runtime</text>
   <rect width="158" height="20" x="121" y="203" style="fill:none;stroke:black;"/>
   <text width="158" height="20" x="126" y="217" style="fill:black;" font-family="Arial" font-size="16px">Country</text>
   <rect width="158" height="20" x="121" y="223" style="fill:none;stroke:black;"/>
   <text width="158" height="20" x="126" y="237" style="fill:black;" font-family="Arial" font-size="16px">Description</text>
   <rect width="158" height="20" x="121" y="243" style="fill:none;stroke:black;"/>
   <text width="158" height="20" x="126" y="257" style="fill:black;" font-family="Arial" font-size="16px">Status</text>
   <rect width="158" height="20" x="121" y="263" style="fill:none;stroke:black;"/>
   <text width="158" height="20" x="126" y="277" style="fill:black;" font-family="Arial" font-size="16px">Image</text>
   <rect width="158" height="20" x="121" y="283" style="fill:none;stroke:black;"/>
   <text width="158" height="20" x="126" y="297" style="fill:black;" font-family="Arial" font-size="16px">Trailer</text>
   <rect width="158" height="20" x="357" y="316" style="fill:#007;stroke:black;"/>
   <text width="158" height="20" x="362" y="330" style="fill:#fff;" font-family="Arial" font-size="16px"> schedules</text>
   <rect width="158" height="20" x="357" y="336" style="fill:#aea;stroke:black;"/>
   <text width="158" height="20" x="362" y="350" style="fill:black;" font-family="Arial" font-size="16px">Id</text>
   <rect width="158" height="20" x="357" y="356" style="fill:none;stroke:black;"/>
   <text width="158" height="20" x="362" y="370" style="fill:black;" font-family="Arial" font-size="16px">Movie</text>
   <rect width="158" height="20" x="357" y="376" style="fill:none;stroke:black;"/>
   <text width="158" height="20" x="362" y="390" style="fill:black;" font-family="Arial" font-size="16px">Date</text>
   <rect width="158" height="20" x="357" y="396" style="fill:none;stroke:black;"/>
   <text width="158" height="20" x="362" y="410" style="fill:black;" font-family="Arial" font-size="16px">Time</text>
   <rect width="158" height="20" x="357" y="416" style="fill:none;stroke:black;"/>
   <text width="158" height="20" x="362" y="430" style="fill:black;" font-family="Arial" font-size="16px">Hall</text>
   <rect width="158" height="20" x="99" y="458" style="fill:#007;stroke:black;"/>
   <text width="158" height="20" x="104" y="472" style="fill:#fff;" font-family="Arial" font-size="16px"> seats</text>
   <rect width="158" height="20" x="99" y="478" style="fill:none;stroke:black;"/>
   <text width="158" height="20" x="104" y="492" style="fill:black;" font-family="Arial" font-size="16px">Id</text>
   <rect width="158" height="20" x="99" y="498" style="fill:none;stroke:black;"/>
   <text width="158" height="20" x="104" y="512" style="fill:black;" font-family="Arial" font-size="16px">SeatLetter</text>
   <rect width="158" height="20" x="99" y="518" style="fill:none;stroke:black;"/>
   <text width="158" height="20" x="104" y="532" style="fill:black;" font-family="Arial" font-size="16px">SeatNumber</text>
   <rect width="158" height="20" x="99" y="538" style="fill:none;stroke:black;"/>
   <text width="158" height="20" x="104" y="552" style="fill:black;" font-family="Arial" font-size="16px">Type</text>
   <rect width="158" height="20" x="99" y="558" style="fill:none;stroke:black;"/>
   <text width="158" height="20" x="104" y="572" style="fill:black;" font-family="Arial" font-size="16px">Price</text>
   <rect width="158" height="20" x="99" y="578" style="fill:none;stroke:black;"/>
   <text width="158" height="20" x="104" y="592" style="fill:black;" font-family="Arial" font-size="16px">Hall</text>
   <rect width="158" height="20" x="99" y="598" style="fill:none;stroke:black;"/>
   <text width="158" height="20" x="104" y="612" style="fill:black;" font-family="Arial" font-size="16px">Side</text>
   <rect width="158" height="20" x="99" y="618" style="fill:none;stroke:black;"/>
   <text width="158" height="20" x="104" y="632" style="fill:black;" font-family="Arial" font-size="16px">status</text>
   <rect width="158" height="20" x="636" y="278" style="fill:#007;stroke:black;"/>
   <text width="158" height="20" x="641" y="292" style="fill:#fff;" font-family="Arial" font-size="16px"> seatsbooked</text>
   <rect width="158" height="20" x="636" y="298" style="fill:none;stroke:black;"/>
   <text width="158" height="20" x="641" y="312" style="fill:black;" font-family="Arial" font-size="16px">Id</text>
   <rect width="158" height="20" x="636" y="318" style="fill:none;stroke:black;"/>
   <text width="158" height="20" x="641" y="332" style="fill:black;" font-family="Arial" font-size="16px">Seat</text>
   <rect width="158" height="20" x="636" y="338" style="fill:none;stroke:black;"/>
   <text width="158" height="20" x="641" y="352" style="fill:black;" font-family="Arial" font-size="16px">User</text>
   <rect width="158" height="20" x="636" y="358" style="fill:none;stroke:black;"/>
   <text width="158" height="20" x="641" y="372" style="fill:black;" font-family="Arial" font-size="16px">Schedule</text>
   <rect width="158" height="20" x="598" y="109" style="fill:#007;stroke:black;"/>
   <text width="158" height="20" x="603" y="123" style="fill:#fff;" font-family="Arial" font-size="16px"> tickets</text>
   <rect width="158" height="20" x="598" y="129" style="fill:none;stroke:black;"/>
   <text width="158" height="20" x="603" y="143" style="fill:black;" font-family="Arial" font-size="16px">Id</text>
   <rect width="158" height="20" x="598" y="149" style="fill:none;stroke:black;"/>
   <text width="158" height="20" x="603" y="163" style="fill:black;" font-family="Arial" font-size="16px">TotalPrice</text>
   <rect width="158" height="20" x="598" y="169" style="fill:none;stroke:black;"/>
   <text width="158" height="20" x="603" y="183" style="fill:black;" font-family="Arial" font-size="16px">Booked</text>
   <rect width="158" height="20" x="376" y="106" style="fill:#007;stroke:black;"/>
   <text width="158" height="20" x="381" y="120" style="fill:#fff;" font-family="Arial" font-size="16px"> users</text>
   <rect width="158" height="20" x="376" y="126" style="fill:#aea;stroke:black;"/>
   <text width="158" height="20" x="381" y="140" style="fill:black;" font-family="Arial" font-size="16px">id</text>
   <rect width="158" height="20" x="376" y="146" style="fill:none;stroke:black;"/>
   <text width="158" height="20" x="381" y="160" style="fill:black;" font-family="Arial" font-size="16px">firstName</text>
   <rect width="158" height="20" x="376" y="166" style="fill:none;stroke:black;"/>
   <text width="158" height="20" x="381" y="180" style="fill:black;" font-family="Arial" font-size="16px">lastName</text>
   <rect width="158" height="20" x="376" y="186" style="fill:none;stroke:black;"/>
   <text width="158" height="20" x="381" y="200" style="fill:black;" font-family="Arial" font-size="16px">email</text>
   <rect width="158" height="20" x="376" y="206" style="fill:none;stroke:black;"/>
   <text width="158" height="20" x="381" y="220" style="fill:black;" font-family="Arial" font-size="16px">profile</text>
   <rect width="158" height="20" x="376" y="226" style="fill:none;stroke:black;"/>
   <text width="158" height="20" x="381" y="240" style="fill:black;" font-family="Arial" font-size="16px">password</text>
   <rect width="158" height="20" x="376" y="246" style="fill:none;stroke:black;"/>
   <text width="158" height="20" x="381" y="260" style="fill:black;" font-family="Arial" font-size="16px">role</text>
</svg>
